<!--
Generated by ProfileForge (Widget Engine)
Version: 1
Theme: vercel
Widget: github_stats
-->
<svg width="820" height="441" viewBox="0 0 820 441" xmlns="http://www.w3.org/2000/svg" role="img">
  <title>Github_Stats Widget</title>
  <desc>ProfileForge Github_Stats widget</desc>
  <defs>
  <linearGradient id="pf-progress-grad" x1="0%" y1="0%" x2="100%" y2="0%">
    <stop offset="0%" stop-color="#FFFFFF" stop-opacity="0.75"/>
    <stop offset="70%" stop-color="#FFFFFF"/>
    <stop offset="100%" stop-color="#0070F3" stop-opacity="0.9"/>
  </linearGradient>

  <linearGradient id="pf-card-border" x1="0%" y1="0%" x2="100%" y2="100%">
    <stop offset="0%" stop-color="#FFFFFF" stop-opacity="0.6"/>
    <stop offset="60%" stop-color="#333333" stop-opacity="0.9"/>
    <stop offset="100%" stop-color="#333333" stop-opacity="0.4"/>
  </linearGradient>

  <linearGradient id="pf-card-bg" x1="0%" y1="0%" x2="0%" y2="100%">
    <stop offset="0%" stop-color="#111111" stop-opacity="0.95"/>
    <stop offset="100%" stop-color="#111111" stop-opacity="0.8"/>
  </linearGradient>

  <linearGradient id="pf-card-gradient" x1="0%" y1="0%" x2="100%" y2="100%">
    <stop offset="0%" stop-color="#111111"/>
    <stop offset="50%" stop-color="#000000"/>
    <stop offset="100%" stop-color="#111111"/>
  </linearGradient>

  <linearGradient id="pf-track-bg" x1="0%" y1="0%" x2="100%" y2="0%">
    <stop offset="0%" stop-color="#A1A1AA" stop-opacity="0.15"/>
    <stop offset="100%" stop-color="#A1A1AA" stop-opacity="0.08"/>
  </linearGradient>


  <linearGradient id="pf-badge-0" x1="0%" y1="0%" x2="100%" y2="100%">
    <stop offset="0%" stop-color="#3B82F6" stop-opacity="0.25"/>
    <stop offset="100%" stop-color="#3B82F6" stop-opacity="0.1"/>
  </linearGradient>
  <linearGradient id="pf-badge-1" x1="0%" y1="0%" x2="100%" y2="100%">
    <stop offset="0%" stop-color="#10B981" stop-opacity="0.25"/>
    <stop offset="100%" stop-color="#10B981" stop-opacity="0.1"/>
  </linearGradient>
  <linearGradient id="pf-badge-2" x1="0%" y1="0%" x2="100%" y2="100%">
    <stop offset="0%" stop-color="#8B5CF6" stop-opacity="0.25"/>
    <stop offset="100%" stop-color="#8B5CF6" stop-opacity="0.1"/>
  </linearGradient>
  <linearGradient id="pf-badge-3" x1="0%" y1="0%" x2="100%" y2="100%">
    <stop offset="0%" stop-color="#F59E0B" stop-opacity="0.25"/>
    <stop offset="100%" stop-color="#F59E0B" stop-opacity="0.1"/>
  </linearGradient>
  <linearGradient id="pf-badge-4" x1="0%" y1="0%" x2="100%" y2="100%">
    <stop offset="0%" stop-color="#EF4444" stop-opacity="0.25"/>
    <stop offset="100%" stop-color="#EF4444" stop-opacity="0.1"/>
  </linearGradient>
  <linearGradient id="pf-badge-5" x1="0%" y1="0%" x2="100%" y2="100%">
    <stop offset="0%" stop-color="#06B6D4" stop-opacity="0.25"/>
    <stop offset="100%" stop-color="#06B6D4" stop-opacity="0.1"/>
  </linearGradient>
  <linearGradient id="pf-badge-6" x1="0%" y1="0%" x2="100%" y2="100%">
    <stop offset="0%" stop-color="#EC4899" stop-opacity="0.25"/>
    <stop offset="100%" stop-color="#EC4899" stop-opacity="0.1"/>
  </linearGradient>
  <linearGradient id="pf-badge-7" x1="0%" y1="0%" x2="100%" y2="100%">
    <stop offset="0%" stop-color="#84CC16" stop-opacity="0.25"/>
    <stop offset="100%" stop-color="#84CC16" stop-opacity="0.1"/>
  </linearGradient>
</defs>
  <svg width="820" height="441" viewBox="0 0 820 441" fill="none" xmlns="http://www.w3.org/2000/svg">
<defs>
  <linearGradient id="pf-progress-grad" x1="0%" y1="0%" x2="100%" y2="0%">
    <stop offset="0%" stop-color="#FFFFFF" stop-opacity="0.75"/>
    <stop offset="70%" stop-color="#FFFFFF"/>
    <stop offset="100%" stop-color="#0070F3" stop-opacity="0.9"/>
  </linearGradient>

  <linearGradient id="pf-card-border" x1="0%" y1="0%" x2="100%" y2="100%">
    <stop offset="0%" stop-color="#FFFFFF" stop-opacity="0.6"/>
    <stop offset="60%" stop-color="#333333" stop-opacity="0.9"/>
    <stop offset="100%" stop-color="#333333" stop-opacity="0.4"/>
  </linearGradient>

  <linearGradient id="pf-card-bg" x1="0%" y1="0%" x2="0%" y2="100%">
    <stop offset="0%" stop-color="#111111" stop-opacity="0.95"/>
    <stop offset="100%" stop-color="#111111" stop-opacity="0.8"/>
  </linearGradient>

  <linearGradient id="pf-card-gradient" x1="0%" y1="0%" x2="100%" y2="100%">
    <stop offset="0%" stop-color="#111111"/>
    <stop offset="50%" stop-color="#000000"/>
    <stop offset="100%" stop-color="#111111"/>
  </linearGradient>

  <linearGradient id="pf-track-bg" x1="0%" y1="0%" x2="100%" y2="0%">
    <stop offset="0%" stop-color="#A1A1AA" stop-opacity="0.15"/>
    <stop offset="100%" stop-color="#A1A1AA" stop-opacity="0.08"/>
  </linearGradient>


  <linearGradient id="pf-badge-0" x1="0%" y1="0%" x2="100%" y2="100%">
    <stop offset="0%" stop-color="#3B82F6" stop-opacity="0.25"/>
    <stop offset="100%" stop-color="#3B82F6" stop-opacity="0.1"/>
  </linearGradient>
  <linearGradient id="pf-badge-1" x1="0%" y1="0%" x2="100%" y2="100%">
    <stop offset="0%" stop-color="#10B981" stop-opacity="0.25"/>
    <stop offset="100%" stop-color="#10B981" stop-opacity="0.1"/>
  </linearGradient>
  <linearGradient id="pf-badge-2" x1="0%" y1="0%" x2="100%" y2="100%">
    <stop offset="0%" stop-color="#8B5CF6" stop-opacity="0.25"/>
    <stop offset="100%" stop-color="#8B5CF6" stop-opacity="0.1"/>
  </linearGradient>
  <linearGradient id="pf-badge-3" x1="0%" y1="0%" x2="100%" y2="100%">
    <stop offset="0%" stop-color="#F59E0B" stop-opacity="0.25"/>
    <stop offset="100%" stop-color="#F59E0B" stop-opacity="0.1"/>
  </linearGradient>
  <linearGradient id="pf-badge-4" x1="0%" y1="0%" x2="100%" y2="100%">
    <stop offset="0%" stop-color="#EF4444" stop-opacity="0.25"/>
    <stop offset="100%" stop-color="#EF4444" stop-opacity="0.1"/>
  </linearGradient>
  <linearGradient id="pf-badge-5" x1="0%" y1="0%" x2="100%" y2="100%">
    <stop offset="0%" stop-color="#06B6D4" stop-opacity="0.25"/>
    <stop offset="100%" stop-color="#06B6D4" stop-opacity="0.1"/>
  </linearGradient>
  <linearGradient id="pf-badge-6" x1="0%" y1="0%" x2="100%" y2="100%">
    <stop offset="0%" stop-color="#EC4899" stop-opacity="0.25"/>
    <stop offset="100%" stop-color="#EC4899" stop-opacity="0.1"/>
  </linearGradient>
  <linearGradient id="pf-badge-7" x1="0%" y1="0%" x2="100%" y2="100%">
    <stop offset="0%" stop-color="#84CC16" stop-opacity="0.25"/>
    <stop offset="100%" stop-color="#84CC16" stop-opacity="0.1"/>
  </linearGradient>
</defs>
<g role="group" data-pf-id="card_b3b85b">
    <rect x="0.5" y="0.5" width="819" height="440" fill="url(#pf-card-bg)" stroke="url(#pf-card-border)" stroke-width="1" rx="12"/>
    
    
    
    <g data-pf-id="column_a4d38b"><g data-pf-id="inline_4d61c6"><svg x="24" y="42.0" width="16" height="16" viewBox="0 0 16 16" fill="#FFFFFF" data-pf-id="icon_6d5d6e"><path d="M8 0C3.58 0 0 3.58 0 8c0 3.54 2.29 6.53 5.47 7.59.4.07.55-.17.55-.38 0-.19-.01-.82-.01-1.49-2.01.37-2.53-.49-2.69-.94-.09-.23-.48-.94-.82-1.13-.28-.15-.68-.52-.01-.53.63-.01 1.08.58 1.23.82.72 1.21 1.87.87 2.33.66.07-.52.28-.87.51-1.07-1.78-.2-3.64-.89-3.64-3.95 0-.87.31-1.59.82-2.15-.08-.2-.36-1.02.08-2.12 0 0 .67-.21 2.2.82.64-.18 1.32-.27 2-.27.68 0 1.36.09 2 .27 1.53-1.04 2.2-.82 2.2-.82.44 1.1.16 1.92.08 2.12.51.56.82 1.27.82 2.15 0 3.07-1.87 3.75-3.65 3.95.29.25.54.73.54 1.48 0 1.07-.01 1.93-.01 2.2 0 .21.15.46.55.38A8.013 8.013 0 0016 8c0-4.42-3.58-8-8-8z"/></svg><g data-pf-id="column_79562b"><text x="56" y="38" font-family="Inter, 'SF Pro Display', -apple-system, sans-serif" font-size="14" font-weight="700" fill="#EDEDED"  data-pf-id="text_812e95">GitHub Stats</text>
<text x="56" y="74" font-family="Inter, 'SF Pro Display', -apple-system, sans-serif" font-size="14" font-weight="normal" fill="#A1A1AA"  data-pf-id="text_8d8437">| @iisgaurav</text></g></g>
<g data-pf-id="inline_72c3ee"><g data-pf-id="column_ab1a48"><g data-pf-id="circularmetric_92d23d">
    <circle cx="146.0" cy="204.0" r="52.0" fill="none" stroke="#A1A1AA" stroke-width="6" stroke-opacity="0.15"/>
    <circle cx="146.0" cy="204.0" r="52.0" fill="none" stroke="url(#pf-progress-grad)" stroke-width="6" stroke-dasharray="326.72535999999997" stroke-dashoffset="326.72535999999997" transform="rotate(-90 146.0 204.0)" stroke-linecap="round">
        <animate attributeName="stroke-dashoffset" from="326.72535999999997" to="185.351296728" dur="1s" fill="freeze" calcMode="spline" keySplines="0.4 0 0.2 1"/>
    </circle>
    <svg x="136.0" y="180.0" width="20" height="20" viewBox="0 0 16 16" fill="#FFFFFF"><path d="M8 .25a.75.75 0 01.673.418l1.882 3.815 4.21.612a.75.75 0 01.416 1.279l-3.046 2.97.719 4.192a.75.75 0 01-1.088.791L8 12.347l-3.766 1.98a.75.75 0 01-1.088-.79l.72-4.194L.818 6.374a.75.75 0 01.416-1.28l4.21-.611L7.327.668A.75.75 0 018 .25z"/></svg>
    <text x="146.0" y="216.0" font-family="Inter, 'SF Pro Display', -apple-system, sans-serif" font-size="18" font-weight="700" fill="#EDEDED" text-anchor="middle">2,163</text>
    <text x="146.0" y="232.0" font-family="Inter, 'SF Pro Display', -apple-system, sans-serif" font-size="12" fill="#A1A1AA" text-anchor="middle">Total Score</text>
</g></g><g data-pf-id="wrap_6519db"><g data-pf-id="sparklinemetric_5510a8">
    <rect x="254.0" y="108" width="230" height="88" fill="url(#pf-card-bg)" stroke="url(#pf-card-border)" stroke-width="1" rx="12"/>
    <rect x="270.0" y="124" width="48" height="48" fill="#0070F3" opacity="0.1" rx="12"/>
    <svg x="286.0" y="140" width="16" height="16" viewBox="0 0 16 16" fill="#0070F3"><path d="M8 .25a.75.75 0 01.673.418l1.882 3.815 4.21.612a.75.75 0 01.416 1.279l-3.046 2.97.719 4.192a.75.75 0 01-1.088.791L8 12.347l-3.766 1.98a.75.75 0 01-1.088-.79l.72-4.194L.818 6.374a.75.75 0 01.416-1.28l4.21-.611L7.327.668A.75.75 0 018 .25z"/></svg>
    <text x="334.0" y="138" font-family="Inter, 'SF Pro Display', -apple-system, sans-serif" font-size="12" fill="#A1A1AA" font-weight="500">Total Stars</text>
    <text x="334.0" y="162" font-family="Inter, 'SF Pro Display', -apple-system, sans-serif" font-size="18" font-weight="700" fill="#EDEDED">21</text>
    <text x="334.0" y="178" font-family="Inter, 'SF Pro Display', -apple-system, sans-serif" font-size="13" fill="#A1A1AA">All time</text>
    <text x="468.0" y="156.0" font-family="Inter, 'SF Pro Display', -apple-system, sans-serif" font-size="12" fill="#A1A1AA" text-anchor="end">No data</text>
</g>
<g data-pf-id="sparklinemetric_04058a">
    <rect x="500.0" y="108" width="230" height="88" fill="url(#pf-card-bg)" stroke="url(#pf-card-border)" stroke-width="1" rx="12"/>
    <rect x="516.0" y="124" width="48" height="48" fill="#0070F3" opacity="0.1" rx="12"/>
    <svg x="532.0" y="140" width="16" height="16" viewBox="0 0 16 16" fill="#0070F3"><path d="M7.177 3.073L9.573.677A.25.25 0 0110 .854v4.792a.25.25 0 01-.427.177L7.177 3.427a.25.25 0 010-.354zM3.75 2.5a.75.75 0 100 1.5.75.75 0 000-1.5zm-2.25.75a2.25 2.25 0 113.125 2.066v5.368a2.25 2.25 0 11-1.5 0V5.316A2.25 2.25 0 011.5 3.25zm2.25 9.25a.75.75 0 100-1.5.75.75 0 000 1.5zm6.5-12.5a2.25 2.25 0 110 4.5 2.25 2.25 0 010-4.5zm0 1.5a.75.75 0 100 1.5.75.75 0 000-1.5z"/></svg>
    <text x="580.0" y="138" font-family="Inter, 'SF Pro Display', -apple-system, sans-serif" font-size="12" fill="#A1A1AA" font-weight="500">Pull Requests</text>
    <text x="580.0" y="162" font-family="Inter, 'SF Pro Display', -apple-system, sans-serif" font-size="18" font-weight="700" fill="#EDEDED">30</text>
    <text x="580.0" y="178" font-family="Inter, 'SF Pro Display', -apple-system, sans-serif" font-size="13" fill="#A1A1AA">All time</text>
    <text x="714.0" y="156.0" font-family="Inter, 'SF Pro Display', -apple-system, sans-serif" font-size="12" fill="#A1A1AA" text-anchor="end">No data</text>
</g>
<g data-pf-id="sparklinemetric_3cfd67">
    <rect x="254.0" y="212" width="230" height="88" fill="url(#pf-card-bg)" stroke="url(#pf-card-border)" stroke-width="1" rx="12"/>
    <rect x="270.0" y="228" width="48" height="48" fill="#3291FF" opacity="0.1" rx="12"/>
    <svg x="286.0" y="244" width="16" height="16" viewBox="0 0 16 16" fill="#3291FF"><path d="M10.5 7.75a2.5 2.5 0 11-5 0 2.5 2.5 0 015 0zm1.43.75a4.002 4.002 0 01-7.86 0H.75a.75.75 0 110-1.5h3.32a4.001 4.001 0 017.86 0h3.32a.75.75 0 110 1.5h-3.32z"/></svg>
    <text x="334.0" y="242" font-family="Inter, 'SF Pro Display', -apple-system, sans-serif" font-size="12" fill="#A1A1AA" font-weight="500">Total Commits</text>
    <text x="334.0" y="266" font-family="Inter, 'SF Pro Display', -apple-system, sans-serif" font-size="18" font-weight="700" fill="#EDEDED">4,165</text>
    <text x="334.0" y="282" font-family="Inter, 'SF Pro Display', -apple-system, sans-serif" font-size="13" fill="#A1A1AA">All time</text>
    <text x="468.0" y="260.0" font-family="Inter, 'SF Pro Display', -apple-system, sans-serif" font-size="12" fill="#A1A1AA" text-anchor="end">No data</text>
</g>
<g data-pf-id="sparklinemetric_f02274">
    <rect x="500.0" y="212" width="230" height="88" fill="url(#pf-card-bg)" stroke="url(#pf-card-border)" stroke-width="1" rx="12"/>
    <rect x="516.0" y="228" width="48" height="48" fill="#F5A623" opacity="0.1" rx="12"/>
    <svg x="532.0" y="244" width="16" height="16" viewBox="0 0 16 16" fill="#F5A623"><path d="M2 2.5A2.5 2.5 0 014.5 0h8.75a.75.75 0 01.75.75v12.5a.75.75 0 01-.75.75h-2.5a.75.75 0 110-1.5h1.75v-2h-8a1 1 0 00-.714 1.7.75.75 0 01-1.072 1.05A2.495 2.495 0 012 11.5v-9zm10.5-1V9h-8c-.356 0-.694.074-1 .208V2.5a1 1 0 011-1h8zM5 12.25v3.25a.25.25 0 00.4.2l1.45-1.087a.25.25 0 01.3 0L8.6 15.7a.25.25 0 00.4-.2v-3.25a.25.25 0 00-.25-.25h-3.5a.25.25 0 00-.25.25z"/></svg>
    <text x="580.0" y="242" font-family="Inter, 'SF Pro Display', -apple-system, sans-serif" font-size="12" fill="#A1A1AA" font-weight="500">Repositories</text>
    <text x="580.0" y="266" font-family="Inter, 'SF Pro Display', -apple-system, sans-serif" font-size="18" font-weight="700" fill="#EDEDED">--</text>
    <text x="580.0" y="282" font-family="Inter, 'SF Pro Display', -apple-system, sans-serif" font-size="13" fill="#A1A1AA">All time</text>
    <text x="714.0" y="260.0" font-family="Inter, 'SF Pro Display', -apple-system, sans-serif" font-size="12" fill="#A1A1AA" text-anchor="end">No data</text>
</g></g></g>
<g role="group" data-pf-id="card_6a8223">
    <rect x="24.5" y="332.5" width="771" height="84" fill="url(#pf-card-bg)" stroke="url(#pf-card-border)" stroke-width="1" rx="12"/>
    
    
    
    <g data-pf-id="inline_08de81"><g data-pf-id="inline_68fc30"><svg x="104.5" y="366.5" width="16" height="16" viewBox="0 0 16 16" fill="#0070F3" data-pf-id="icon_2e3a84"><path d="M4.75 0a.75.75 0 01.75.75V2h5V.75a.75.75 0 011.5 0V2h1.25c.966 0 1.75.784 1.75 1.75v10.5A1.75 1.75 0 0113.25 16H2.75A1.75 1.75 0 011 14.25V3.75C1 2.784 1.784 2 2.75 2H4V.75A.75.75 0 014.75 0zm0 3.5h8.5V3.75a.25.25 0 00-.25-.25H2.75a.25.25 0 00-.25.25v.75zm-2.25 2v8.75c0 .138.112.25.25.25h10.5a.25.25 0 00.25-.25V5.5H2.5z"/></svg><g data-pf-id="column_cebee0"><text x="132.5" y="370" font-family="Inter, 'SF Pro Display', -apple-system, sans-serif" font-size="14" font-weight="normal" fill="#A1A1AA"  data-pf-id="text_597d94">Joined GitHub</text>
<text x="132.5" y="391" font-family="Inter, 'SF Pro Display', -apple-system, sans-serif" font-size="14" font-weight="600" fill="#EDEDED"  data-pf-id="text_94895a">--</text></g></g><g data-pf-id="inline_b8f823"><svg x="347.0" y="366.5" width="16" height="16" viewBox="0 0 16 16" fill="#3291FF" data-pf-id="icon_a1c139"><path d="M8 0a8 8 0 100 16A8 8 0 008 0zM1.5 8a6.5 6.5 0 1113 0 6.5 6.5 0 01-13 0zm7.25-3.25v2.92l2.28 1.32a.75.75 0 01-.76 1.3l-2.75-1.59A.75.75 0 017 8V4.75a.75.75 0 011.5 0z"/></svg><g data-pf-id="column_5fce27"><text x="375.0" y="370" font-family="Inter, 'SF Pro Display', -apple-system, sans-serif" font-size="14" font-weight="normal" fill="#A1A1AA"  data-pf-id="text_6d2b34">Last Active</text>
<text x="375.0" y="391" font-family="Inter, 'SF Pro Display', -apple-system, sans-serif" font-size="14" font-weight="600" fill="#EDEDED"  data-pf-id="text_b5054c">--</text></g></g><g data-pf-id="inline_e652e6"><svg x="572.5" y="366.5" width="16" height="16" viewBox="0 0 16 16" fill="#F5A623" data-pf-id="icon_78632f"><path d="M8.03.351a.75.75 0 01.442.179c1.47 1.258 2.628 2.607 3.42 4.073.784 1.45.924 2.859.924 4.032A4.82 4.82 0 113.184 8.635a.75.75 0 111.474-.275 3.32 3.32 0 106.658.275c0-1.026-.118-2.148-.756-3.326-.645-1.187-1.637-2.37-2.922-3.468a.75.75 0 01-.225-.634L8.03.35z"/></svg><g data-pf-id="column_c86256"><text x="600.5" y="370" font-family="Inter, 'SF Pro Display', -apple-system, sans-serif" font-size="14" font-weight="normal" fill="#A1A1AA"  data-pf-id="text_fdafea">Current Streak</text>
<text x="600.5" y="391" font-family="Inter, 'SF Pro Display', -apple-system, sans-serif" font-size="14" font-weight="600" fill="#EDEDED"  data-pf-id="text_477068">--</text></g></g></g>
</g></g>
</g>
</svg>
</svg>